<?xml version="1.0" encoding="utf-8"?>
<!-- Generator: Adobe Illustrator 19.1.1, SVG Export Plug-In . SVG Version: 6.00 Build 0)  -->
<svg version="1.1" id="Layer_1" xmlns="http://www.w3.org/2000/svg" xmlns:xlink="http://www.w3.org/1999/xlink" x="0px" y="0px"
	 viewBox="0 0 1200 1200" enable-background="new 0 0 1200 1200" xml:space="preserve">
<g>
	<g>
		<g>
			<g>
				<path fill="#B3B8BD" d="M740.887,1119.237H586.933H432.979H279.025H125.071c-7.458,0-14.564-1.512-21.027-4.245
					c-6.463-2.734-12.283-6.689-17.171-11.577c-4.888-4.888-8.843-10.708-11.577-17.171c-2.734-6.463-4.245-13.568-4.245-21.027
					V911.264V757.31V603.356V449.402c0-7.458,1.512-14.564,4.245-21.027c2.734-6.463,6.689-12.283,11.577-17.171
					c4.888-4.888,10.708-8.843,17.171-11.577c6.463-2.734,13.568-4.245,21.027-4.245h153.954h153.954h153.954h153.954
					c7.458,0,14.564,1.512,21.027,4.245c6.463,2.733,12.283,6.689,17.171,11.577c4.888,4.888,8.843,10.708,11.577,17.171
					c2.734,6.463,4.245,13.568,4.245,21.027v153.954V757.31v153.954v153.954c0,7.458-1.512,14.564-4.245,21.027
					c-2.734,6.463-6.689,12.283-11.577,17.171c-4.888,4.888-10.708,8.843-17.171,11.577
					C755.451,1117.725,748.345,1119.237,740.887,1119.237z"/>
				<path fill="#2E4C59" d="M740.889,1135.861H432.98H125.072c-9.438,0-18.593-1.837-27.055-5.342
					c-8.463-3.505-16.233-8.677-22.901-15.348c-6.671-6.671-11.843-14.441-15.348-22.902c-3.505-8.461-5.342-17.614-5.342-27.05
					V757.311V449.402c0-9.436,1.837-18.588,5.342-27.05c3.505-8.461,8.679-16.232,15.352-22.902
					c6.666-6.671,14.435-11.843,22.897-15.348s17.617-5.342,27.055-5.342H432.98h307.909c9.436,0,18.588,1.837,27.05,5.342
					s16.232,8.677,22.902,15.348c6.671,6.675,11.843,14.448,15.348,22.909s5.342,17.612,5.342,27.043v307.909v307.908
					c0,9.431-1.837,18.581-5.341,27.043c-3.504,8.461-8.675,16.234-15.344,22.909c-6.673,6.671-14.444,11.843-22.906,15.348
					C759.477,1134.024,750.324,1135.861,740.889,1135.861z M125.072,412.012c-4.996,0-9.841,0.972-14.32,2.826
					c-4.478,1.854-8.59,4.591-12.117,8.122c-3.533,3.53-6.272,7.645-8.128,12.125c-1.856,4.48-2.829,9.325-2.829,14.317v307.909
					v307.908c0,4.992,0.973,9.837,2.829,14.317c1.856,4.48,4.594,8.595,8.124,12.125c3.53,3.53,7.643,6.267,12.122,8.122
					c4.479,1.854,9.324,2.826,14.32,2.826H432.98h307.909c4.994,0,9.839-0.972,14.319-2.826c4.479-1.854,8.593-4.591,12.123-8.122
					c3.53-3.53,6.267-7.645,8.122-12.125c1.854-4.48,2.826-9.325,2.826-14.317V757.311V449.402c0-4.991-0.972-9.837-2.827-14.317
					s-4.593-8.595-8.126-12.125c-3.528-3.53-7.64-6.267-12.119-8.122c-4.479-1.854-9.324-2.826-14.318-2.826H432.98H125.072z"/>
			</g>
			<g opacity="0.35">
				<path fill="#2E4C59" d="M126.103,1068.622V732.002V395.383h-0.516h-0.516c-7.459,0-14.564,1.512-21.027,4.245
					c-6.463,2.733-12.283,6.689-17.171,11.577c-4.888,4.888-8.843,10.708-11.577,17.17s-4.245,13.568-4.245,21.027V757.31v307.908
					c0,7.459,1.511,14.564,4.245,21.027s6.689,12.282,11.577,17.17c4.888,4.888,10.708,8.844,17.171,11.577
					c6.463,2.734,13.568,4.245,21.027,4.245h307.908h307.908c7.459,0,14.564-1.511,21.027-4.245
					c6.463-2.734,12.283-6.689,17.171-11.577c4.511-4.511,8.212-9.82,10.89-15.697c2.679-5.876,4.336-12.319,4.759-19.096H460.419
					H126.103z"/>
				<path fill="#2E4C59" d="M740.884,1128.735H432.978H125.072c-8.487,0-16.719-1.651-24.328-4.802s-14.595-7.802-20.591-13.8
					c-5.998-5.998-10.649-12.984-13.8-20.592c-3.151-7.608-4.802-15.837-4.802-24.322V757.311V449.402
					c0-8.485,1.651-16.714,4.803-24.322c3.152-7.608,7.803-14.594,13.804-20.592c5.993-5.998,12.979-10.649,20.587-13.8
					c7.608-3.151,15.84-4.802,24.327-4.802h0.515h0.515c2.623,0,4.998,1.062,6.718,2.781s2.783,4.094,2.783,6.719v331.869v331.869
					h329.565h329.565c1.31,0,2.592,0.271,3.77,0.782s2.253,1.26,3.151,2.215c0.9,0.956,1.581,2.076,2.016,3.284
					c0.435,1.208,0.626,2.505,0.544,3.813c-0.482,7.733-2.358,15.234-5.476,22.166c-3.118,6.932-7.479,13.294-12.932,18.749
					c-6,5.998-12.989,10.649-20.599,13.8S749.369,1128.735,740.884,1128.735z M116.601,405.685
					c-4.333,0.83-8.492,2.296-12.364,4.351c-3.872,2.055-7.458,4.699-10.645,7.886c-4.205,4.203-7.465,9.099-9.674,14.432
					c-2.209,5.332-3.366,11.101-3.366,17.048v307.909v307.908c0,5.947,1.157,11.716,3.366,17.048
					c2.209,5.332,5.469,10.229,9.674,14.432c4.203,4.203,9.098,7.462,14.43,9.67s11.1,3.365,17.05,3.365h307.906h307.906
					c5.947,0,11.717-1.157,17.05-3.365s10.231-5.467,14.434-9.67c2.602-2.602,4.849-5.502,6.707-8.623s3.327-6.463,4.376-9.952
					H454.776H126.102c-2.623,0-4.998-1.062-6.718-2.781c-1.719-1.719-2.783-4.094-2.783-6.719v-331.47V405.685z"/>
			</g>
			<g opacity="0.35">
				<path fill="#2E4C59" d="M367.845,985.365c-3.062,0-6.078-0.338-9.001-0.993c-2.923-0.655-5.753-1.627-8.444-2.893
					c-2.691-1.267-5.243-2.828-7.61-4.663s-4.55-3.943-6.501-6.303c-1.952-2.36-3.612-4.899-4.97-7.569s-2.412-5.47-3.151-8.351
					c-0.739-2.881-1.161-5.843-1.256-8.837s0.139-6.019,0.714-9.027l6.968-36.468l6.968-36.468l6.968-36.468l6.968-36.468
					c-11.041-7.058-20.876-15.43-29.36-24.846s-15.617-19.873-21.253-31.101c-5.636-11.228-9.775-23.226-12.271-35.722
					s-3.35-25.49-2.416-38.709c1.25-17.703,5.764-34.527,12.939-49.875c7.175-15.348,17.01-29.22,28.904-41.018
					c11.894-11.798,25.846-21.523,41.254-28.577s32.272-11.436,49.989-12.549c0.76-0.048,1.523-0.09,2.286-0.125
					s1.529-0.066,2.293-0.09c0.765-0.024,1.529-0.042,2.292-0.054c0.763-0.012,1.524-0.018,2.282-0.018
					c19.659,0,38.401,3.998,55.456,11.225c17.055,7.226,32.424,17.68,45.335,30.592c12.911,12.911,23.365,28.28,30.591,45.335
					s11.224,35.797,11.224,55.456c0,12.159-1.561,24.111-4.537,35.606s-7.37,22.536-13.034,32.872
					c-5.665,10.336-12.601,19.969-20.665,28.65c-8.064,8.681-17.255,16.411-27.429,22.941l6.969,36.47l6.969,36.47l6.969,36.47
					l6.969,36.47c0.575,3.009,0.808,6.035,0.714,9.029c-0.095,2.994-0.518,5.957-1.257,8.838c-0.739,2.881-1.794,5.681-3.152,8.351
					c-1.358,2.67-3.019,5.209-4.971,7.568c-1.952,2.359-4.134,4.466-6.501,6.301c-2.367,1.834-4.919,3.396-7.61,4.662
					c-2.691,1.266-5.521,2.238-8.443,2.893c-2.922,0.655-5.938,0.993-9,0.993h-32.298H432.44h-32.298H367.845z"/>
				<path fill="#2E4C59" d="M497.034,1004.366H432.44h-64.595c-4.453,0-8.828-0.478-13.093-1.429
					c-4.266-0.951-8.422-2.375-12.439-4.268c-4.017-1.888-7.763-4.182-11.215-6.863c-3.452-2.681-6.61-5.75-9.451-9.187
					c-2.846-3.442-5.267-7.123-7.252-11.017c-1.985-3.894-3.533-8.002-4.633-12.298c-1.102-4.291-1.72-8.638-1.853-13.006
					c-0.133-4.369,0.218-8.759,1.055-13.139l12.783-66.889l12.783-66.889c-9.823-7.45-18.73-15.958-26.556-25.342
					c-7.826-9.385-14.571-19.646-20.07-30.603c-6.485-12.919-11.167-26.664-13.969-40.843s-3.724-28.792-2.689-43.446
					c1.373-19.423,6.27-38.285,14.302-55.741c8.032-17.456,19.201-33.507,33.117-47.308c13.917-13.805,30.059-24.846,47.58-32.74
					s36.42-12.642,55.85-13.862c0.874-0.051,1.743-0.097,2.608-0.138c0.865-0.041,1.727-0.075,2.587-0.103
					c22.633-0.793,44.537,3.092,64.753,11.145c20.216,8.053,38.744,20.274,54.625,36.153c15.278,15.281,27.124,33.064,35.15,52.414
					c8.026,19.35,12.232,40.267,12.232,61.815c0,13.504-1.721,26.964-5.07,40.019c-3.349,13.055-8.327,25.705-14.84,37.59
					c-5.439,9.927-11.908,19.245-19.257,27.791c-7.349,8.546-15.577,16.321-24.535,23.163l12.785,66.912l12.785,66.912
					c0.837,4.379,1.189,8.77,1.055,13.14c-0.134,4.37-0.753,8.719-1.857,13.015c-1.097,4.296-2.646,8.403-4.633,12.297
					c-1.986,3.893-4.409,7.572-7.252,11.009c-2.841,3.433-5.999,6.499-9.451,9.179c-3.451,2.68-7.196,4.974-11.211,6.862
					c-4.015,1.888-8.17,3.312-12.436,4.264C505.866,1003.885,501.49,1004.366,497.034,1004.366z M432.437,547.172
					c-0.661,0-1.326,0.007-1.992,0.019s-1.336,0.028-2.006,0.046c-0.666,0.019-1.333,0.044-1.999,0.075s-1.334,0.068-1.999,0.11
					c-14.819,0.932-29.247,4.565-42.634,10.605c-13.387,6.04-25.732,14.487-36.385,25.05c-10.646,10.558-19.19,22.83-25.334,36.17
					s-9.887,27.745-10.933,42.571c-0.796,11.254-0.094,22.462,2.045,33.323c2.139,10.861,5.716,21.375,10.67,31.242
					c4.936,9.839,11.196,18.948,18.575,27.099c7.379,8.152,15.878,15.347,25.29,21.359c3.275,2.097,5.748,5.082,7.219,8.497
					s1.941,7.261,1.21,11.079l-13.938,72.938l-13.938,72.938c-0.309,1.61-0.438,3.219-0.391,4.819
					c0.048,1.599,0.273,3.188,0.674,4.756c0.404,1.568,0.972,3.071,1.701,4.499c0.729,1.428,1.618,2.78,2.664,4.046
					c1.041,1.257,2.198,2.38,3.459,3.361s2.629,1.821,4.093,2.512c1.466,0.691,2.986,1.211,4.55,1.558
					c1.563,0.347,3.17,0.521,4.807,0.521h64.595h64.595c1.638,0,3.243-0.174,4.805-0.521c1.562-0.347,3.081-0.866,4.547-1.558
					c1.466-0.691,2.836-1.531,4.1-2.513s2.423-2.107,3.466-3.369c1.042-1.262,1.929-2.609,2.656-4.032
					c0.727-1.423,1.294-2.921,1.696-4.485c0.404-1.573,0.63-3.164,0.678-4.765c0.048-1.602-0.082-3.214-0.39-4.828l-13.938-72.938
					l-13.938-72.938c-0.728-3.809-0.261-7.65,1.204-11.062c1.465-3.412,3.929-6.395,7.192-8.487
					c8.67-5.567,16.611-12.219,23.626-19.746c7.015-7.527,13.105-15.928,18.073-24.992c4.982-9.092,8.791-18.769,11.354-28.753
					c2.563-9.984,3.88-20.276,3.88-30.597c0-16.473-3.218-32.466-9.359-47.264c-6.141-14.798-15.204-28.402-26.894-40.097
					c-11.688-11.685-25.288-20.748-40.086-26.888C464.91,550.391,448.915,547.172,432.437,547.172z"/>
			</g>
			<g>
				<path fill="#2E4C59" d="M546.557,670.781c0-16.366-3.445-31.927-9.65-45.998c-6.205-14.071-15.169-26.652-26.207-37.056
					c-11.038-10.405-24.15-18.633-38.65-24c-14.5-5.367-30.388-7.872-46.979-6.83c-14.107,0.886-27.565,4.404-39.879,10.063
					s-23.484,13.46-33.015,22.913s-17.423,20.557-23.181,32.823s-9.383,25.694-10.379,39.794c-0.812,11.495,0.08,22.66,2.448,33.266
					s6.215,20.656,11.31,29.921c5.096,9.265,11.441,17.746,18.809,25.216s15.758,13.929,24.944,19.151
					c1.667,0.947,3.136,2.134,4.38,3.498c1.244,1.364,2.262,2.906,3.027,4.565c0.765,1.659,1.277,3.435,1.507,5.267
					c0.23,1.832,0.18,3.72-0.18,5.603l-7.314,38.276l-7.314,38.276l-7.314,38.276l-7.314,38.276
					c-0.367,1.92-0.274,3.805,0.194,5.552s1.31,3.357,2.443,4.726c1.133,1.37,2.556,2.499,4.184,3.287
					c1.628,0.787,3.462,1.232,5.417,1.232h32.298h32.298h32.298h32.298c1.955,0,3.788-0.445,5.417-1.232
					c1.628-0.787,3.051-1.917,4.184-3.287c1.133-1.37,1.975-2.979,2.443-4.726c0.468-1.747,0.56-3.632,0.194-5.552l-7.314-38.275
					l-7.314-38.275l-7.314-38.275l-7.314-38.275c-0.358-1.872-0.412-3.752-0.189-5.578c0.223-1.826,0.724-3.599,1.477-5.255
					c0.753-1.656,1.757-3.196,2.988-4.556c1.231-1.361,2.688-2.542,4.346-3.482c8.645-4.901,16.587-10.898,23.638-17.801
					c7.051-6.903,13.21-14.714,18.288-23.242c5.078-8.529,9.076-17.775,11.804-27.552
					C545.099,691.735,546.557,681.429,546.557,670.781z"/>
			</g>
			<g>
				<g>
					<path fill="#2E4C59" d="M148.434,450.077c0,2.909-0.59,5.68-1.656,8.2s-2.609,4.79-4.515,6.697s-4.176,3.449-6.697,4.515
						s-5.292,1.656-8.2,1.656c-2.909,0-5.68-0.59-8.2-1.656c-2.52-1.066-4.79-2.609-6.697-4.515
						c-1.906-1.906-3.449-4.176-4.515-6.697s-1.656-5.292-1.656-8.2c0-2.909,0.59-5.68,1.656-8.2s2.609-4.79,4.515-6.697
						c1.906-1.906,4.176-3.449,6.697-4.515c2.52-1.066,5.292-1.656,8.2-1.656c2.909,0,5.68,0.59,8.2,1.656s4.79,2.609,6.697,4.515
						c1.906,1.906,3.449,4.176,4.515,6.697S148.434,447.168,148.434,450.077z"/>
					<path fill="#2E4C59" d="M758.578,450.077c0,2.909-0.59,5.68-1.656,8.2c-1.066,2.52-2.609,4.79-4.515,6.697
						s-4.176,3.449-6.697,4.515s-5.292,1.656-8.2,1.656s-5.68-0.59-8.2-1.656s-4.79-2.609-6.697-4.515
						c-1.906-1.906-3.449-4.176-4.515-6.697c-1.066-2.52-1.656-5.292-1.656-8.2c0-2.909,0.59-5.68,1.656-8.2
						c1.066-2.52,2.609-4.79,4.515-6.697c1.906-1.906,4.176-3.449,6.697-4.515s5.292-1.656,8.2-1.656s5.68,0.59,8.2,1.656
						s4.79,2.609,6.697,4.515c1.906,1.906,3.449,4.176,4.515,6.697C757.988,444.397,758.578,447.168,758.578,450.077z"/>
				</g>
				<g>
					<path fill="#2E4C59" d="M148.434,1063.462c0,2.909-0.59,5.68-1.656,8.2s-2.609,4.79-4.515,6.697s-4.176,3.449-6.697,4.515
						s-5.292,1.656-8.2,1.656c-2.909,0-5.68-0.59-8.2-1.656c-2.52-1.066-4.79-2.609-6.697-4.515
						c-1.906-1.906-3.449-4.176-4.515-6.697s-1.656-5.292-1.656-8.2c0-2.909,0.59-5.68,1.656-8.2s2.609-4.79,4.515-6.697
						c1.906-1.906,4.176-3.449,6.697-4.515c2.52-1.066,5.292-1.656,8.2-1.656c2.909,0,5.68,0.589,8.2,1.656
						c2.52,1.066,4.79,2.609,6.697,4.515s3.449,4.176,4.515,6.697S148.434,1060.553,148.434,1063.462z"/>
					<path fill="#2E4C59" d="M758.578,1063.462c0,2.909-0.59,5.68-1.656,8.2c-1.066,2.521-2.609,4.79-4.515,6.697
						s-4.176,3.449-6.697,4.515s-5.292,1.656-8.2,1.656s-5.68-0.59-8.2-1.656s-4.79-2.609-6.697-4.515
						c-1.906-1.906-3.449-4.176-4.515-6.697c-1.066-2.521-1.656-5.292-1.656-8.2c0-2.909,0.59-5.68,1.656-8.2
						c1.066-2.521,2.609-4.79,4.515-6.697c1.906-1.906,4.176-3.449,6.697-4.515c2.52-1.066,5.292-1.656,8.2-1.656
						s5.68,0.589,8.2,1.656c2.52,1.066,4.79,2.609,6.697,4.515s3.449,4.176,4.515,6.697
						C757.988,1057.782,758.578,1060.553,758.578,1063.462z"/>
				</g>
			</g>
		</g>
		<path fill="#2E4C59" d="M674.705,412.012H432.978H191.251c-4.59,0-8.747-1.86-11.756-4.869c-3.009-3.008-4.87-7.165-4.87-11.757
			v-52.819v-52.819c0-66.1,26.887-126.037,70.299-169.449S348.271,50,414.369,50h18.609h18.609
			c66.098,0,126.034,26.887,169.445,70.299s70.299,103.349,70.299,169.449v52.819v52.819c0,4.593-1.861,8.749-4.87,11.757
			C683.452,410.152,679.295,412.012,674.705,412.012z M207.876,378.76h225.101h225.101v-44.506v-44.506
			c0-56.933-23.158-108.558-60.548-145.949c-37.39-37.391-89.013-60.548-145.945-60.548h-18.609h-18.609
			c-56.931,0-108.554,23.158-145.945,60.548s-60.548,89.015-60.548,145.949v44.506V378.76z"/>
	</g>
	<g>
		<path fill="#FDE9A4" d="M1092.688,1007.713c10.011,0,19.076-4.059,25.638-10.621c6.562-6.562,10.621-15.627,10.621-25.638
			c0-10.011-4.059-19.076-10.621-25.638c-6.562-6.562-15.627-10.621-25.638-10.621h-25.43h-25.43V764.489V593.783
			c25.194-7.763,46.974-23.39,62.455-44.003c15.481-20.613,24.664-46.212,24.664-73.92c0-34.015-13.837-64.86-36.178-87.201
			c-22.341-22.341-53.185-36.178-87.201-36.178s-64.86,13.837-87.201,36.178C896.027,411,882.19,441.844,882.19,475.86
			c0,27.708,9.183,53.307,24.664,73.92s37.261,36.24,62.455,44.003v251.664v251.664c0,10.011,4.059,19.076,10.621,25.638
			c6.562,6.562,15.627,10.621,25.638,10.621c10.011,0,19.076-4.059,25.638-10.621c6.562-6.562,10.621-15.627,10.621-25.638v-8.241
			v-8.241h25.43h25.43c10.011,0,19.076-4.059,25.638-10.621s10.621-15.627,10.621-25.638c0-10.011-4.059-19.076-10.621-25.638
			c-6.562-6.562-15.627-10.621-25.638-10.621h-25.43h-25.43v-0.2v-0.2h25.43H1092.688z M1005.568,424.999
			c14.022,0,26.737,5.704,35.947,14.914c9.21,9.21,14.914,21.925,14.914,35.947c0,14.022-5.704,26.737-14.914,35.947
			c-9.21,9.21-21.925,14.914-35.947,14.914c-14.022,0-26.737-5.704-35.947-14.914s-14.914-21.925-14.914-35.947
			c0-14.022,5.704-26.737,14.914-35.947C978.831,430.703,991.546,424.999,1005.568,424.999z"/>
		<path fill="#2E4C59" d="M1005.567,1150c-14.58,0-27.801-5.931-37.377-15.508c-9.576-9.577-15.507-22.8-15.507-37.385V851.3
			V605.492c-26.293-10.679-48.073-28.68-63.28-51.215c-15.206-22.535-23.839-49.603-23.839-78.415
			c0-38.6,15.702-73.601,41.053-98.952s60.352-41.051,98.95-41.051c38.6,0,73.602,15.7,98.954,41.051
			c25.352,25.351,41.053,60.351,41.053,98.952c0,28.812-8.633,55.88-23.839,78.415c-15.206,22.535-36.986,40.536-63.28,51.215
			v156.54v156.54h17.115h17.115c14.582,0,27.804,5.931,37.381,15.507c9.576,9.576,15.507,22.797,15.507,37.377
			c0,7.06-1.391,13.801-3.912,19.964c-2.522,6.163-6.175,11.748-10.7,16.498c4.525,4.746,8.178,10.329,10.7,16.49
			c2.522,6.162,3.912,12.902,3.912,19.962c0,14.58-5.931,27.801-15.507,37.377c-9.577,9.576-22.799,15.507-37.381,15.507h-17.115
			h-17.115c-0.039,14.548-5.983,27.734-15.556,37.283S1020.124,1150,1005.567,1150z M1005.567,369.112
			c-29.432,0-56.119,11.973-75.449,31.303c-19.33,19.33-31.302,46.018-31.302,75.447c0,23.195,7.75,45.283,21.05,63.283
			c13.299,18,32.147,31.912,54.342,38.755c3.486,1.072,6.418,3.219,8.478,6.011c2.06,2.791,3.249,6.227,3.249,9.873v251.662v251.662
			c0,5.414,2.201,10.324,5.756,13.881c3.555,3.557,8.463,5.76,13.876,5.76s10.323-2.203,13.878-5.76s5.758-8.467,5.758-13.881
			v-8.239v-8.239c0-4.593,1.861-8.749,4.87-11.757s7.165-4.869,11.756-4.869h25.428h25.428c5.414,0,10.323-2.201,13.878-5.756
			c3.556-3.555,5.758-8.463,5.758-13.876c0-5.414-2.202-10.322-5.758-13.876c-3.556-3.555-8.465-5.756-13.878-5.756h-25.428h-25.428
			c-4.59,0-8.747-1.86-11.756-4.868c-3.009-3.008-4.87-7.165-4.87-11.757s1.861-8.849,4.87-11.957
			c3.009-3.108,7.165-5.068,11.756-5.068h25.428h25.428c5.414,0,10.323-2.201,13.878-5.756c3.556-3.555,5.758-8.463,5.758-13.876
			c0-5.414-2.202-10.322-5.758-13.876c-3.556-3.555-8.465-5.756-13.878-5.756h-25.428h-25.428c-4.59,0-8.747-1.86-11.756-4.869
			s-4.87-7.165-4.87-11.757V764.492V593.784c0-3.646,1.189-7.081,3.249-9.873c2.06-2.792,4.992-4.939,8.478-6.011
			c22.195-6.842,41.043-20.755,54.342-38.755s21.05-40.088,21.05-63.283c0-29.429-11.973-56.117-31.304-75.447
			C1061.688,381.085,1034.999,369.112,1005.567,369.112z M1005.567,543.349c-18.607,0-35.479-7.568-47.699-19.789
			c-12.22-12.22-19.789-29.092-19.789-47.699s7.568-35.478,19.789-47.699c12.22-12.22,29.092-19.788,47.699-19.788
			c18.607,0,35.479,7.568,47.699,19.788s19.788,29.092,19.788,47.699s-7.568,35.478-19.788,47.699
			C1041.046,535.781,1024.174,543.349,1005.567,543.349z M1005.567,441.627c-9.438,0-17.997,3.839-24.196,10.037
			s-10.039,14.758-10.039,24.198c0,9.44,3.84,17.999,10.039,24.198s14.758,10.037,24.196,10.037c9.438,0,17.997-3.839,24.196-10.037
			s10.039-14.758,10.039-24.198c0-9.44-3.84-17.999-10.039-24.198S1015.005,441.627,1005.567,441.627z"/>
	</g>
</g>
</svg>
