<?xml version="1.0" encoding="utf-8"?>
<!-- Generator: Adobe Illustrator 19.1.1, SVG Export Plug-In . SVG Version: 6.00 Build 0)  -->
<svg version="1.1" id="Layer_1" xmlns="http://www.w3.org/2000/svg" xmlns:xlink="http://www.w3.org/1999/xlink" x="0px" y="0px"
	 viewBox="0 0 1200 1200" enable-background="new 0 0 1200 1200" xml:space="preserve">
<g>
	<g>
		<path fill="#9AA1A7" d="M1079.086,983.031H599.832H120.578c-16.358,0-31.167-6.63-41.887-17.35s-17.35-25.529-17.35-41.887v-2.47
			v-2.47h538.492h538.492v2.47v2.47c0,16.358-6.63,31.167-17.35,41.887C1110.254,976.4,1095.444,983.031,1079.086,983.031z"/>
		<path fill="#2E4C59" d="M1086.512,994.084H599.833H113.154c-17.332,0-33.049-7.051-44.432-18.434
			c-11.384-11.384-18.434-27.1-18.434-44.432v-6.183v-6.183c0-3.053,1.237-5.816,3.237-7.816c2-2,4.764-3.237,7.816-3.237h538.492
			h538.492c3.053,0,5.816,1.237,7.816,3.237s3.237,4.764,3.237,7.816v6.183v6.183c0,17.332-7.051,33.049-18.434,44.432
			C1119.561,987.034,1103.844,994.084,1086.512,994.084z M72.395,929.906v0.656v0.656c0,11.237,4.571,21.427,11.951,28.807
			c7.38,7.38,17.57,11.951,28.807,11.951h486.679h486.679c11.237,0,21.427-4.571,28.807-11.951
			c7.38-7.38,11.951-17.57,11.951-28.807v-0.656v-0.656H599.833H72.395z"/>
	</g>
	<g>
		<path fill="#2E4C59" d="M1003.741,685.888H600.001H196.26V468.68V251.471c0-9.527,3.862-18.153,10.105-24.396
			s14.869-10.105,24.396-10.105h369.239H969.24c9.527,0,18.153,3.862,24.396,10.105s10.105,14.869,10.105,24.396V468.68V685.888z"/>
		<path fill="#2E4C59" d="M1003.741,696.943H600H196.26c-3.053,0-5.816-1.237-7.816-3.237c-2-2-3.237-4.764-3.237-7.816v-222.49
			V240.91c0-9.648,3.924-18.397,10.261-24.733c6.336-6.337,15.085-10.261,24.733-10.261H600h379.8
			c9.648,0,18.397,3.924,24.733,10.261c6.336,6.336,10.261,15.085,10.261,24.733v222.49v222.49c0,3.053-1.237,5.816-3.237,7.816
			C1009.557,695.706,1006.793,696.943,1003.741,696.943z M207.314,674.835H600h392.687V457.873V240.91
			c0-3.553-1.445-6.774-3.779-9.108c-2.334-2.334-5.555-3.779-9.108-3.779H600H220.2c-3.553,0-6.774,1.445-9.108,3.779
			c-2.334,2.334-3.779,5.555-3.779,9.108v216.963V674.835z"/>
	</g>
	<g>
		<polygon fill="#ABE1ED" points="196.26,643.425 196.26,664.657 196.26,685.888 600.001,685.888 1003.741,685.888 
			1003.741,664.657 1003.741,643.425 600.001,643.425 		"/>
		<path fill="#2E4C59" d="M1003.741,696.943H600H196.26c-3.053,0-5.816-1.237-7.816-3.237c-2-2-3.237-4.764-3.237-7.816v-21.232
			v-21.232c0-3.053,1.237-5.816,3.237-7.816c2-2,4.764-3.237,7.816-3.237H600h403.74c3.053,0,5.816,1.237,7.816,3.237
			c2,2,3.237,4.764,3.237,7.816v21.232v21.232c0,3.053-1.237,5.816-3.237,7.816C1009.557,695.706,1006.793,696.943,1003.741,696.943
			z M207.314,674.835H600h392.687v-10.178v-10.178H600H207.314v10.178V674.835z"/>
	</g>
	<g>
		<path fill="#EAEEEF" d="M1116.117,937.809H600.001H83.884c-8.591,0-15.64-4.049-19.537-9.78
			c-3.898-5.732-4.644-13.146-0.63-19.876l66.272-111.132l66.272-111.132h403.741h403.741l66.272,111.132l66.272,111.132
			c4.014,6.731,3.267,14.145-0.63,19.876C1131.757,933.76,1124.708,937.809,1116.117,937.809z"/>
		<path fill="#2E4C59" d="M1116.118,948.863H600.001H83.885c-6.32,0-12.355-1.604-17.542-4.5
			c-5.187-2.895-9.528-7.082-12.461-12.247c-2.647-4.659-3.938-9.757-3.88-14.845c0.058-5.088,1.466-10.164,4.219-14.78
			l66.273-111.131l66.273-111.132c0.996-1.672,2.396-3.02,4.034-3.951s3.513-1.442,5.459-1.442H600h403.74
			c1.946,0,3.821,0.512,5.459,1.442s3.038,2.279,4.034,3.951l66.272,111.132l66.272,111.131c2.753,4.616,4.161,9.693,4.221,14.78
			c0.059,5.088-1.231,10.186-3.875,14.845c-2.934,5.165-7.275,9.352-12.463,12.247
			C1128.472,947.259,1122.438,948.863,1116.118,948.863z M202.538,696.943l-64.665,108.435L73.209,913.813
			c-0.91,1.526-1.175,2.952-1.093,4.206s0.511,2.338,0.989,3.18c0.762,1.343,2.052,2.732,3.853,3.786
			c1.802,1.054,4.115,1.771,6.926,1.771h516.117h516.116c2.81,0,5.123-0.718,6.925-1.771c1.802-1.054,3.092-2.443,3.855-3.786
			c0.478-0.842,0.907-1.925,0.988-3.179c0.082-1.254-0.184-2.679-1.094-4.204l-64.665-108.436l-64.665-108.436H600H202.538z"/>
	</g>
	<g opacity="0.35">
		<polygon fill="#2E4C59" points="1056.421,774.227 1030.081,730.058 1003.741,685.888 600.001,685.888 196.26,685.888 
			169.92,730.058 143.58,774.227 600.001,774.227 		"/>
		<path fill="#2E4C59" d="M1056.421,785.28H600H143.58c-1.988,0-3.9-0.534-5.56-1.501c-1.66-0.966-3.069-2.365-4.051-4.093
			c-0.982-1.729-1.462-3.656-1.442-5.577c0.021-1.921,0.541-3.836,1.56-5.544l26.34-44.169l26.34-44.169
			c0.996-1.672,2.396-3.02,4.034-3.951s3.513-1.442,5.459-1.442H600h403.74c1.946,0,3.821,0.512,5.459,1.442
			s3.038,2.279,4.034,3.951l26.34,44.169l26.34,44.169c1.019,1.708,1.54,3.623,1.56,5.544c0.021,1.921-0.459,3.847-1.442,5.577
			c-0.982,1.728-2.391,3.127-4.051,4.093C1060.321,784.746,1058.409,785.28,1056.421,785.28z M163.042,763.173H600h436.958
			l-19.748-33.115l-19.748-33.115H600H202.538l-19.748,33.115L163.042,763.173z"/>
	</g>
	<g opacity="0.35">
		<polygon fill="#2E4C59" points="741.847,882.122 600.703,882.122 459.558,882.122 471.621,857.182 483.683,832.241 
			600.703,832.241 717.723,832.241 729.785,857.182 		"/>
		<path fill="#2E4C59" d="M741.848,893.176H600.703H459.558c-1.902,0-3.738-0.489-5.351-1.381c-1.613-0.892-3.003-2.188-4.015-3.8
			c-1.01-1.612-1.571-3.427-1.672-5.267s0.258-3.706,1.087-5.418l12.062-24.94l12.062-24.94c0.923-1.909,2.351-3.469,4.077-4.552
			c1.727-1.083,3.753-1.689,5.873-1.689h117.02h117.02c2.12,0,4.146,0.606,5.873,1.689s3.154,2.644,4.077,4.552l12.063,24.94
			l12.063,24.94c0.829,1.712,1.188,3.577,1.087,5.418c-0.101,1.84-0.662,3.655-1.672,5.267c-1.011,1.612-2.401,2.907-4.014,3.799
			S743.751,893.176,741.848,893.176z M477.183,871.068h123.519h123.52l-6.716-13.886l-6.716-13.886H600.702H490.614l-6.715,13.886
			L477.183,871.068z"/>
	</g>
	<g>
		<polygon fill="#ABE1ED" points="847.145,523.472 682.85,523.472 518.555,523.472 518.555,410.299 518.555,297.126 682.85,297.126 
			847.145,297.126 847.145,410.299 		"/>
		<path fill="#2E4C59" d="M847.146,534.526H682.851H518.555c-3.053,0-5.816-1.237-7.816-3.237c-2-2-3.237-4.764-3.237-7.816V410.299
			V297.126c0-3.053,1.237-5.816,3.237-7.816c2-2,4.764-3.237,7.816-3.237h164.295h164.295c3.053,0,5.816,1.237,7.816,3.237
			c2,2,3.237,4.764,3.237,7.816v113.173v113.173c0,3.053-1.237,5.816-3.237,7.816C852.962,533.289,850.199,534.526,847.146,534.526z
			 M529.609,512.418h153.242h153.242V410.299V308.18H682.851H529.609v102.119V512.418z"/>
	</g>
	<g>
		<polygon fill="#ABE1ED" points="682.85,597.307 518.555,597.307 354.26,597.307 354.26,484.133 354.26,370.96 518.555,370.96 
			682.85,370.96 682.85,484.133 		"/>
		<path fill="#2E4C59" d="M682.851,608.359H518.555H354.26c-3.053,0-5.816-1.237-7.816-3.237c-2-2-3.237-4.764-3.237-7.816V484.133
			V370.96c0-3.053,1.237-5.816,3.237-7.816c2-2,4.764-3.237,7.816-3.237h164.295h164.295c3.053,0,5.816,1.237,7.816,3.237
			c2,2,3.237,4.764,3.237,7.816v113.173v113.173c0,3.053-1.237,5.816-3.237,7.816C688.667,607.122,685.903,608.359,682.851,608.359z
			 M365.314,586.252h153.242h153.242V484.133V382.014H518.555H365.314v102.119V586.252z"/>
	</g>
</g>
</svg>
